<?xml version="1.0" encoding="UTF-8"?>
<svg id="Layer_1" data-name="Layer 1" xmlns="http://www.w3.org/2000/svg" viewBox="0 0 511.19 256.82">
  <defs>
    <style>
      .cls-1 {
        fill: #fff;
      }
    </style>
  </defs>
  <path class="cls-1" d="m0,47.5c6.31-15.08,17.91-21.57,33.97-20.94,4.66.18,9.34-.1,14,.08,6.78.27,11.17,4.42,11.18,10.3,0,5.94-4.27,9.99-11.17,10.21-5.99.2-12-.06-18,.13-7.14.22-10.74,3.84-10.78,10.92-.09,15.8-.09,31.6,0,47.41.04,7.07,3.77,10.77,10.84,10.78,36,.05,72,.01,108,.06,2.32,0,4.08-.6,5.74-2.29,6.64-6.78,13.33-13.51,20.16-20.1,1.96-1.89,2.28-3.72,1.64-6.22-1.78-6.95-.53-13.5,3.06-19.66,3.27-5.6,6.39-11.29,9.81-16.8,2.11-3.4,1.06-4.2-2.49-4.18-13.17.08-26.33.03-39.5.03-1.33,0-2.67,0-4,0-8.94-.07-13.65-3.64-13.61-10.32.04-6.62,4.87-10.28,13.72-10.29,18.5-.02,37-.09,55.5.06,3.41.03,5.63-.81,7-4.09C202.26,5.45,215.01-1.15,233.61.16c17.25,1.22,34.65.31,51.98.24,11-.05,20.03,4.3,24.47,14.19,4.5,10.03,10.93,12.42,21.55,12.28,48.99-.64,97.99-.32,146.99-.26,16.7.02,28.79,9.33,31.99,24.48.51,2.41.55,4.95.56,7.43.05,15.47.05,30.94.02,46.41-.03,19.25-12.44,31.9-31.82,32.06-21.66.18-43.33.04-65,.05-7.79,0-15.57,0-23.47,0,.07,2.69,1.94,3.54,3.13,4.75,8.91,8.99,17.94,17.85,26.84,26.85,13.59,13.75,13.61,31.5.07,45.15-11.02,11.11-22.09,22.17-33.24,33.16-13.28,13.1-31.32,13.15-44.53.03-26.81-26.64-53.52-53.38-80.27-80.09-5.12-5.11-10.65-5.09-15.82.07-26.28,26.23-52.54,52.48-78.84,78.69-15.03,14.98-32.29,14.89-47.38-.17-10.61-10.59-21.24-21.15-31.81-31.76-13.38-13.44-13.47-31.31-.17-44.77,9.01-9.12,18.14-18.12,27.2-27.19,1.15-1.15,2.22-2.37,3.61-3.85-2.17-1.3-4.19-.85-6.07-.85-26.5-.03-53-.33-79.5.09-16.1.26-27.63-5.85-34.11-20.78V47.5Zm144.62,188.57c3.26.23,5.68-1.44,7.86-3.62,37.11-37.04,74.24-74.06,111.31-111.14,4.97-4.97,4.95-10.38.04-15.34-11.12-11.24-22.32-22.41-33.57-33.52-5.33-5.26-10.39-5.29-15.68-.03-37.15,37-74.26,74.04-111.34,111.11-4.88,4.88-4.9,10.47-.07,15.35,11.24,11.36,22.6,22.59,33.91,33.89,2.08,2.08,4.44,3.49,7.54,3.31ZM407.54,47.21c-24.31,0-48.62.05-72.94-.05-3.97-.02-5.27.65-2.77,4.57,3.48,5.46,6.59,11.15,9.76,16.81,3.37,6.02,4.63,12.46,2.81,19.21-.75,2.77-.06,4.65,1.96,6.6,6.58,6.36,13.06,12.82,19.43,19.38,1.89,1.95,3.86,2.75,6.57,2.72,10.16-.13,20.31-.05,30.47-.05,25.48,0,50.96-.05,76.43.04,4.96.02,8.78-1.39,10.78-6.27,1.12-2.74.47-5.59.82-8.37.49-3.85-1.17-4.81-4.79-4.76-12.82.17-25.64.09-38.47.04-2.99-.01-6.05.08-8.94-.52-4.78-.98-7.45-4.29-7.75-9.13-.31-4.87,2.12-8.24,6.6-10.08,2.19-.9,4.55-.89,6.89-.88,13.99.02,27.98-.09,41.96.07,3.41.04,4.8-.88,4.53-4.45-.29-3.8-.06-7.64-.06-11.46-.01-10.33-3.02-13.4-13.34-13.42-23.31-.03-46.63,0-69.94,0Zm-118.36,116.15c.55.98.7,1.48,1.02,1.81,22.72,22.71,45.4,45.45,68.22,68.06,4.48,4.44,9.84,4.09,14.61-.61,11.26-11.1,22.45-22.28,33.58-33.5,5.08-5.12,5.1-10.62.01-15.72-23.52-23.56-47.14-47.01-70.61-70.62-2.73-2.75-3.66-1.79-5.2.96-5.2,9.28-10.8,18.34-15.89,27.68-5.77,10.6-11.96,20.51-25.75,21.95Zm-17.59-21.79c.36.47.72.93,1.09,1.4,4.16,0,8.32-.07,12.48.02,3.54.08,5.97-1.39,7.73-4.45,10.11-17.58,20.26-35.14,30.47-52.66,1.59-2.74,1.66-5.22.08-7.95-10.27-17.68-20.5-35.38-30.74-53.09-1.43-2.47-3.4-4.09-6.38-4.09-16.48-.01-32.96,0-50.03,0,2.92,11.68,5.82,22.9,8.46,34.18.68,2.91,2.02,5.12,4.1,7.18,9.72,9.58,19.4,19.21,29,28.91,13.59,13.73,13.6,31.44.04,45.11-1.95,1.96-4.19,3.63-6.3,5.44Zm-55.11-115.18c-6.53,11.29-12.52,21.66-18.5,32.02,6.74-5.41,13.66-9.63,22.37-10.16,1.43-.09,1.41-1.1,1.14-2.16-1.57-6.21-3.15-12.41-5-19.7Z"/>
  <path class="cls-1" d="m99.14,36.71c.12,5.63-4.27,10.22-9.91,10.34-5.64.12-10.26-4.28-10.38-9.88-.11-5.55,4.39-10.29,9.91-10.44,5.47-.15,10.26,4.45,10.38,9.98Z"/>
  <path class="cls-1" d="m411.15,86.94c-.05,5.61-4.61,10.07-10.25,10.01-5.65-.06-10.1-4.59-10.05-10.21.05-5.53,4.76-10.17,10.25-10.11,5.51.07,10.1,4.77,10.05,10.31Z"/>
</svg>