<?xml version="1.0" encoding="UTF-8"?>
<svg id="Layer_1" data-name="Layer 1" xmlns="http://www.w3.org/2000/svg" viewBox="0 0 359.22 359.21">
  <defs>
    <style>
      .cls-1 {
        fill: #fff;
      }
    </style>
  </defs>
  <path class="cls-1" d="m66.71,22.34c0-3.57-.05-6.67.01-9.76C66.86,5.25,71.93-.02,78.75,0c6.79.02,11.8,5.34,11.89,12.67.04,3.08,0,6.16,0,9.43h154.08c0-3.4-.05-6.61,0-9.81C244.86,5.24,249.93.02,256.61,0c6.66-.02,11.83,5.18,12.04,12.22.1,3.21.02,6.43.02,10.12,3.69,0,7.02-.05,10.35,0,27.42.46,49.57,18.58,55.14,45.34.88,4.23,1.14,8.66,1.15,13,.09,33.55.02,67.1.13,100.65,0,1.92.76,4.19,1.93,5.71,49.08,64.3,10.95,158.75-69.06,170.84-30.02,4.54-57.07-2.67-81.4-20.69-1.54-1.14-3.82-1.79-5.76-1.79-41.41-.1-82.82-.02-124.22-.1-27.5-.05-50.24-18.64-55.79-45.57-.77-3.76-1.07-7.67-1.08-11.51C0,211.88-.03,145.52.04,79.17c.03-31.52,24.46-56.24,55.96-56.82,3.35-.06,6.71,0,10.71,0ZM24.1,113.12c-.06.95-.12,1.55-.12,2.16,0,54.63-.09,109.27.05,163.9.05,18.12,14.55,32.12,32.98,32.18,33.93.1,67.86.03,101.78.02.89,0,1.78-.19,2.85-.32-28.57-44.27-21.06-97.46,9.52-131.43,15.49-17.2,34.55-28.51,57.16-33.38,29.55-6.37,57.11-.88,82.87,15.43v-48.56H24.1Zm143.59,138.3c-.05,46.02,37.45,83.8,83.28,83.92,46.64.12,84.33-37.38,84.39-83.97.06-45.88-37.58-83.62-83.49-83.71-46.48-.08-84.14,37.38-84.18,83.76ZM24.24,88.74h286.91c3.73-32.6-19.53-46.12-42.5-41.82,0,2.95.05,5.93-.01,8.92-.16,7.32-5.23,12.53-12.09,12.49-6.89-.04-11.76-5.23-11.84-12.66-.03-3.06,0-6.13,0-9.14H90.65c0,3.23.03,6.2,0,9.17-.09,7.41-4.98,12.6-11.87,12.63-6.83.03-11.92-5.23-12.06-12.52-.06-3.08,0-6.16,0-9.15-27.48-3.71-45.97,13.19-42.46,42.09Z"/>
  <path class="cls-1" d="m239.55,227.65c0-7.72-.03-15.45,0-23.17.04-7.56,5.12-12.92,12.08-12.85,6.78.06,11.82,5.4,11.84,12.73.05,12.83.1,25.66-.05,38.49-.03,2.75.82,4.61,2.76,6.47,5.66,5.43,11.16,11.04,16.68,16.61,5.61,5.67,5.92,12.9.83,17.9-5,4.91-12.12,4.58-17.63-.88-7.43-7.37-14.77-14.83-22.22-22.17-3.04-2.99-4.41-6.45-4.34-10.7.12-7.47.03-14.95.04-22.42Z"/>
</svg>