<?xml version="1.0" encoding="utf-8"?>
<!-- Generator: Adobe Illustrator 27.2.0, SVG Export Plug-In . SVG Version: 6.00 Build 0)  -->
<svg version="1.1" id="Layer_1" xmlns="http://www.w3.org/2000/svg" xmlns:xlink="http://www.w3.org/1999/xlink" x="0px" y="0px"
	 viewBox="0 0 410 410" style="enable-background:new 0 0 410 410;" xml:space="preserve">
<style type="text/css">
	.st0{fill:none;stroke:#000000;stroke-width:3;stroke-miterlimit:10;}
</style>
<g transform="translate(0.000000,228.000000) scale(0.100000,-0.100000)">
	<path d="M1734.1,2168.2c-169.8-25-336.2-71.3-494.2-139.2c-101-43.4-198.1-95.6-290.3-155.5c-93.8-60.9-182.5-129.8-265-205.3
		c-78.1-71.5-150.6-148.9-216.9-231.5c-64.6-80.5-123.3-165.8-175.1-255c-51.8-89.1-96.9-182.2-134.3-278.3
		c-20.2-51.9-38.2-104.6-53.9-158C90,696,77.5,645.9,67.2,595.4C-87.5-157.3,232.8-970,866-1406.2
		c414.7-285.7,933.7-422,1434.9-361.6c619.2,74.6,1196.6,450.5,1508.9,990.3c399.5,690.7,327.6,1611.8-181.3,2227.7
		c-150.5,182.2-333.1,338-536.7,457.9C2686.8,2146.8,2198.3,2236.6,1734.1,2168.2z M2729.6,2022.7
		c362.6-125.5,741.9-421.6,965.1-751.3c598.8-888.1,351.4-2079.7-554.1-2675.5C2143.9-2058,775.3-1683.2,265.8-615.3
		C-191.6,340.2,206.3,1455,1177,1940.3c182.2,91.8,256.6,103,109.7,16.9c-122.7-73.1-331-290.4-416.5-436.5
		c-40.9-71.2-96.7-194.9-126.4-277.3c-46.5-136.8-52.1-172.4-52.1-421.6s5.6-284.8,52.1-421.6c128.3-371,416.5-682,769.8-830
		c344-146.1,790.3-129.3,1134.3,45c457.4,232.3,732.6,683.9,732.6,1206.6c0,490.9-239.9,918.1-654.5,1167.2
		C2590.2,2067.7,2592,2071.4,2729.6,2022.7z M2692.4,1790.4c14.9-56.2-55.8-223-139.5-331.6c-46.5-58.1-44.6-56.2,14.9,7.5
		c37.2,39.3,85.5,112.4,107.9,159.3c40.9,82.4,42.8,84.3,48.3,33.7c3.7-35.6-11.2-80.6-46.5-129.3
		c-52.1-78.7-185.9-196.7-210.1-189.2c-7.4,1.9-18.6-13.1-24.2-31.9c-7.4-31.9,1.9-30,61.4,18.7c39,31.9,96.7,86.2,130.2,123.7
		c80,91.8,94.8,63.7,22.3-39.3c-33.5-46.8-53.9-95.6-48.3-112.4c16.7-43.1-78.1-155.5-202.7-236.1c-139.5-91.8-115.3-97.4,31.6-7.5
		c59.5,35.6,111.6,65.6,117.1,65.6c3.7,0-9.3-26.2-31.6-56.2c-39-56.2-210.1-168.6-254.8-168.6c-16.7,0-18.6,13.1-3.7,52.5
		c11.2,28.1,18.6,52.5,18.6,56.2c-11.2,35.6,16.7,67.4,115.3,131.2c106,69.3,221.3,172.4,193.4,172.4c-5.6,0-39-24.4-72.5-52.5
		c-74.4-63.7-204.5-153.6-223.1-153.6c-9.3,0-14.9,13.1-14.9,30c0,35.6,104.1,138.6,122.7,121.8c7.4-5.6,7.4,0,0,13.1
		c-9.3,16.9-35.3,5.6-94.8-37.5c-42.8-33.7-94.8-73.1-113.4-84.3c-31.6-20.6-29.8-22.5,16.7-13.1c27.9,7.5,50.2,3.7,50.2-7.5
		s-22.3-37.5-50.2-58.1l-52.1-39.3l52.1,11.2c40.9,9.4,48.3,5.6,39-16.9c-5.6-16.9-33.5-39.3-59.5-48.7l-50.2-20.6l52.1,7.5
		c27.9,3.7,50.2,0,50.2-9.4c0-7.5-22.3-31.9-50.2-52.5c-42.8-30-44.6-37.5-18.6-39.3c42.8,0,22.3-35.6-31.6-56.2
		c-37.2-15-37.2-15,14.9-35.6c37.2-15,59.5-16.9,74.4-1.9c13,13.1,9.3,18.7-13,18.7c-29.8,0-29.8,3.7-1.9,46.8
		c16.7,26.2,40.9,46.8,52.1,46.8c13,0,65.1,20.6,113.4,46.8c50.2,24.4,94.8,41.2,100.4,37.5c14.9-16.9-63.2-88.1-146.9-134.9
		c-74.4-41.2-61.4-50.6,24.2-15c24.2,9.4,29.8,5.6,20.5-15c-5.6-15-31.6-33.7-59.5-41.2c-46.5-13.1-46.5-15-13-28.1
		s27.9-18.7-39-48.7l-74.4-33.7l89.3-45c48.3-24.4,107.9-71.2,130.2-101.2c55.8-80.6,66.9-232.3,22.3-326l-35.3-73.1l-11.2,123.7
		c-5.6,78.7-24.2,146.1-50.2,189.2c-48.3,78.7-357,376.6-357,344.7c0-5.6,59.5-67.4,133.9-138.6c132-129.3,132-129.3,139.5-239.8
		c5.6-110.5,0-118-20.5-20.6c-7.4,28.1-70.7,116.2-141.3,193c-72.5,76.8-130.2,149.9-130.2,161.1s-5.6,16.9-11.2,11.2
		c-16.7-18.7,27.9-91.8,104.1-174.2c46.5-50.6,72.5-99.3,80-149.9c7.4-39.3,29.8-99.3,52.1-129.3l40.9-54.3l-42.8,11.2
		c-40.9,11.2-42.8,7.5-31.6-89.9c14.9-149.9,46.5-204.2,124.6-215.5c40.9-5.6,65.1-18.7,65.1-37.5c0-16.9-11.2-24.4-27.9-18.7
		c-63.2,18.7-275.2,7.5-303.1-16.9c-27.9-22.5-31.6-20.6-31.6,7.5c0,20.6-9.3,28.1-27.9,20.6c-44.6-16.9-31.6,18.7,16.7,50.6
		c33.5,22.5,59.5,26.2,104.1,13.1c48.3-15,57.6-13.1,48.3,11.2c-5.6,15-27.9,86.2-50.2,157.4c-27.9,91.8-46.5,125.5-63.2,119.9
		c-20.5-9.4-24.2,3.7-16.7,52.5c5.6,33.7,1.9,73.1-7.4,86.2c-16.7,24.4-169.2,69.3-184.1,52.5c-3.7-3.7,16.7-13.1,46.5-20.6
		c40.9-7.5,57.6-24.4,65.1-61.8c5.6-28.1,16.7-67.4,24.2-86.2c11.2-30,7.4-33.7-18.6-24.4c-22.3,9.4-35.3,0-48.3-33.7
		c-9.3-26.2-52.1-91.8-93-148C1738.5-8.3,1705-57,1705-64.5c0-5.6,27.9-13.1,61.4-16.9c37.2-3.7,59.5-15,59.5-33.7
		c0-16.9-11.2-24.4-27.9-18.7c-44.6,15-247.3,7.5-295.7-9.4c-37.2-13.1-42.8-9.4-33.5,13.1c7.4,22.5,1.9,26.2-26,20.6
		c-53.9-15-42.8,9.4,22.3,41.2c33.5,18.7,76.2,26.2,107.9,18.7c59.5-13.1,81.8,13.1,172.9,196.7c46.5,97.4,48.3,103,13,108.7
		c-18.6,3.7-35.3,7.5-35.3,9.4c0,1.9,13,43.1,26,89.9l26,88.1l-66.9,30c-146.9,69.3-226.9,178-226.9,312.9
		c0,127.4,63.2,230.5,225,365.3c113.4,93.7,137.6,123.7,137.6,168.6c0,45-9.3,56.2-50.2,60c-27.9,3.7-68.8-3.7-93-16.9l-42.8-22.5
		l52.1-22.5c48.3-18.7,50.2-24.4,22.3-46.8c-24.2-20.6-39-20.6-65.1-3.7c-27.9,16.9-39,13.1-65.1-28.1
		c-22.3-33.7-37.2-41.2-52.1-26.2c-13,13.1-11.2,30,13,56.2c31.6,35.6,31.6,35.6-3.7,26.2c-20.5-3.7-42.8,0-48.3,11.2
		c-7.4,13.1,16.7,24.4,63.2,31.9c44.6,7.5,74.4,22.5,74.4,37.5s9.3,26.2,20.5,26.2c9.3,0,14.9,7.5,7.4,18.7
		c-5.6,9.4-22.3,13.1-37.2,5.6c-14.9-5.6-27.9,0-27.9,11.2c0,13.1,13,26.2,27.9,31.9c14.9,7.5,27.9,22.5,27.9,37.5
		c0,15,9.3,26.2,18.6,26.2c11.2,0,18.6-7.5,18.6-18.7c0-9.4,13-18.7,27.9-18.7s27.9,7.5,27.9,16.9c0,39.3,78.1,39.3,197.1,1.9
		c68.8-20.6,141.3-31.9,163.6-26.2c33.5,11.2,35.3,9.4,13-18.7c-13-16.9-44.6-30-68.8-30c-37.2,0-40.9-7.5-31.6-61.8
		c7.4-54.3-3.7-78.7-85.5-179.9c-94.8-121.8-143.2-224.8-124.6-273.5c18.6-50.6,46.5-28.1,66.9,52.5
		c37.2,148,61.4,183.6,215.7,324.1c184.1,168.6,277.1,303.5,277.1,404.7c0,39.3,3.7,71.2,9.3,71.2c29.8,0,55.8-52.5,55.8-112.4
		c0-97.4-89.3-223-264-371c-94.8-80.6-143.2-133-135.7-149.9c5.6-15,0-41.2-13-58.1c-13-16.9-1.9-13.1,22.3,9.4
		c26,20.6,102.3,76.8,171.1,125.5c212,149.9,342.1,329.8,392.4,535.8C2646,1859.7,2672,1870.9,2692.4,1790.4z M2499.1,1543.1
		c-16.7-37.5-66.9-104.9-107.9-149.9c-78.1-86.2-312.4-262.3-327.3-247.3c-3.7,5.6,59.5,63.7,139.5,131.2
		c159.9,134.9,236.2,232.3,267.8,342.9c18.6,69.3,20.5,71.2,39,30C2525.1,1618,2521.4,1591.8,2499.1,1543.1z"/>
	<path d="M1165.8-667.8c0-7.5,7.4-28.1,18.6-46.8c26-48.7-22.3-82.4-98.6-69.3c-57.6,9.4-63.2,5.6-94.8-74.9
		c-24.2-58.1-27.9-89.9-14.9-103s29.8,1.9,55.8,52.5c33.5,63.7,46.5,73.1,145,93.7c137.6,30,230.6,31.9,230.6,7.5
		c0-30-80-54.3-115.3-35.6c-16.7,9.4-35.3,16.9-40.9,16.9c-18.6,0-11.2-93.7,9.3-134.9c16.7-30,14.9-43.1-3.7-54.3
		c-35.3-22.5-14.9-20.6,55.8,3.7c61.4,22.5,74.4,48.7,29.8,65.6c-14.9,7.5-27.9,22.5-27.9,37.5c0,18.7,24.2,26.2,83.7,26.2
		s87.4,9.4,94.8,28.1c20.5,50.6-29.8,84.3-124.6,84.3c-70.7,0-94.8,7.5-109.7,37.5C1240.2-697.7,1165.8-645.3,1165.8-667.8z"/>
	<path d="M2045.3-680.9c1.9-11.2-37.2-48.7-85.5-80.6c-119-80.6-120.9-84.3-42.8-71.2c87.4,13.1,89.3-20.6,1.9-52.5
		c-59.5-22.5-63.2-26.2-33.5-58.1c37.2-43.1,9.3-82.4-76.2-104.9c-61.4-16.9-68.8-39.3-22.3-69.3c20.5-11.2,50.2-5.6,104.1,26.2
		c89.3,50.6,130.2,41.2,130.2-30c0-82.4-40.9-144.3-102.3-155.5l-55.8-11.2l61.4-33.7c35.3-16.9,74.4-28.1,87.4-24.4
		c27.9,11.2,65.1,151.8,65.1,245.4c0,67.4,0,67.4,83.7,67.4c46.5,0,83.7,7.5,83.7,15c0,26.2-87.4,58.1-128.3,46.8
		c-48.3-13.1-53.9,41.2-9.3,91.8c26,26.2,26,33.7,5.6,41.2c-81.8,24.4-93,31.9-81.8,48.7c5.6,9.4,31.6,18.7,55.8,18.7
		c63.2,0,78.1,37.5,27.9,78.7C2067.7-652.8,2037.9-649,2045.3-680.9z M1993.3-993.8c-5.6-11.2-20.5-20.6-31.6-20.6
		s-11.2,11.2,3.7,28.1C1991.4-954.4,2013.7-961.9,1993.3-993.8z"/>
	<path d="M2902.6-705.2c5.6-15-11.2-50.6-37.2-78.7l-48.3-52.5l11.2,69.3l9.3,71.2l-44.6-33.7c-35.3-24.4-42.8-43.1-35.3-84.3
		c9.3-45,3.7-52.5-46.5-61.8c-31.6-7.5-57.6-20.6-57.6-30c0-28.1,59.5-41.2,94.8-18.7c53.9,35.6,87.4,26.2,42.8-11.2
		c-44.6-37.5-68.8-191.1-42.8-260.4c13-33.7,27.9-43.1,76.2-39.3c42.8,3.7,61.4-3.7,66.9-26.2c5.6-26.2-5.6-28.1-74.4-20.6
		c-126.4,16.9-163.6,37.5-163.6,88.1c0,24.4-13,54.3-27.9,67.4c-20.5,16.9-22.3,30-5.6,56.2c29.8,46.8,9.3,86.2-57.6,108.7
		c-48.3,16.9-57.6,15-57.6-7.5c0-16.9,16.7-33.7,39-39.3c29.8-7.5,37.2-22.5,29.8-54.3c-3.7-24.4,3.7-60,16.7-76.8
		c35.3-48.7,31.6-74.9-13-86.2c-72.5-18.7-27.9-60,72.5-63.7c52.1-1.9,111.6-11.2,132-24.4c68.8-35.6,206.4-52.5,273.3-31.9
		c89.3,28.1,78.1,50.6-24.2,50.6h-89.3l5.6,176.1c5.6,164.9,3.7,178-31.6,189.2c-22.3,5.6-39,24.4-39,41.2
		c0,22.5,16.7,26.2,74.4,20.6c53.9-5.6,74.4,0,74.4,18.7c0,18.7-16.7,24.4-55.8,18.7c-74.4-11.2-87.4,13.1-27.9,52.5
		c44.6,30,46.5,33.7,16.7,65.6C2921.2-669.6,2887.7-665.9,2902.6-705.2z M2895.1-988.2c0-16.9-11.2-26.2-22.3-20.6
		c-13,3.7-39,0-55.8-9.4c-22.3-11.2-33.5-9.4-33.5,3.7c0,11.2,18.6,28.1,42.8,37.5C2885.8-952.6,2895.1-954.4,2895.1-988.2z
		 M2913.7-1081.8c0-20.6-9.3-26.2-29.8-18.7c-16.7,5.6-39,11.2-50.2,11.2c-29.8,0,26,37.5,57.6,37.5
		C2902.6-1051.9,2913.7-1065,2913.7-1081.8z M2895.1-1160.5c0-28.1-11.2-33.7-55.8-26.2c-61.4,9.4-74.4,33.7-22.3,46.8
		C2880.3-1123,2895.1-1126.8,2895.1-1160.5z"/>
	<path d="M2584.6-827c0-45,5.6-50.6,39-37.5c22.3,7.5,39,24.4,39,37.5s-16.7,30-39,37.5C2590.2-776.4,2584.6-782.1,2584.6-827z"/>
	<path d="M1128.6-890.7c0-13.1-16.7-46.8-37.2-73.1c-42.8-56.2-46.5-69.3-13-69.3s106,78.7,106,116.2c0,16.9-13,33.7-27.9,41.2
		C1139.8-870.1,1128.6-875.7,1128.6-890.7z"/>
	<path d="M1165.8-1083.7c-26-5.6-53.9-16.9-65.1-26.2c-26-24.4,27.9-56.2,70.7-43.1c29.8,9.4,31.6,5.6,14.9-28.1
		c-18.6-33.7-130.2-73.1-172.9-61.8c-26,7.5-16.7-52.5,9.3-63.7c13-3.7,59.5,3.7,102.3,18.7c59.5,22.5,102.3,24.4,184.1,11.2
		c117.1-20.6,133.9-15,98.6,28.1c-13,16.9-53.9,28.1-94.8,28.1c-81.8,0-89.3,15-35.3,65.6c27.9,26.2,31.6,39.3,16.7,60
		C1273.6-1070.6,1251.3-1068.7,1165.8-1083.7z"/>
	<path d="M1723.6,1419.4c0-9.4,9.3-13.1,18.6-7.5c11.2,5.6,18.6,15,18.6,20.6c0,3.7-7.4,7.5-18.6,7.5
		C1732.9,1440,1723.6,1430.6,1723.6,1419.4z"/>
	<path d="M1705,1009.1c-11.2-22.5-16.7-45-13-50.6c5.6-3.7,20.5,9.4,31.6,31.9c11.2,22.5,16.7,45,13,50.6
		C1731.1,1044.7,1716.2,1031.6,1705,1009.1z"/>
	<path d="M1939.3,930.4c-35.3-65.6-42.8-89.9-22.3-73.1c31.6,26.2,93,151.8,80,163C1993.3,1024.1,1967.2,982.9,1939.3,930.4z"/>
	<path d="M1777.6,615.6c24.2-20.6,52.1-37.5,65.1-37.5c11.2,1.9,0,18.7-24.2,37.5c-24.2,20.6-52.1,37.5-65.1,37.5
		C1742.2,651.2,1753.4,634.4,1777.6,615.6z"/>
</g>
<ellipse class="st0" cx="205.4" cy="207.2" rx="200" ry="197.9"/>
</svg>
