<?xml version="1.0" encoding="UTF-8"?>
<svg id="Layer_1" data-name="Layer 1" xmlns="http://www.w3.org/2000/svg" viewBox="0 0 287.87 409.6">
  <defs>
    <style>
      .cls-1 {
        fill: #fff;
      }
    </style>
  </defs>
  <path class="cls-1" d="m151.64,0c4.06.53,8.14.96,12.19,1.61,49.23,7.94,86.06,33.88,108.17,78.53,23.22,46.89,20.72,93.91-5.79,138.94-35.92,61.01-72.51,121.62-109.01,182.29-1.99,3.3-5.78,5.51-8.74,8.23h-5.59c-4.52-1.85-7.27-5.4-9.78-9.46-36.45-59-72.86-118.02-109.55-176.87C5.49,194.35-2.72,163.17.8,129.21c3.12-30.12,14.73-56.74,34.62-79.62C52.47,29.97,73.22,15.6,97.98,7.78c10.93-3.45,22.52-4.81,33.81-7.1,1.28-.26,2.58-.45,3.88-.68,5.32,0,10.65,0,15.97,0Zm-6.19,374.26c.58-.79.84-1.09,1.05-1.43,33.39-55.87,66.96-111.64,100.11-167.66,17.96-30.37,21.69-62.92,11.42-96.64C240.24,50.16,181.49,14.93,121.32,26.04c-50.78,9.38-90.57,52.05-96.63,103.74-3.36,28.62,3.16,54.95,18.31,79.35,33.43,53.83,66.74,107.73,100.11,161.6.69,1.11,1.45,2.18,2.35,3.53Z"/>
  <path class="cls-1" d="m143.46,215.99c-39.68-.16-71.77-32.48-71.65-72.16.13-39.61,32.59-71.97,72.05-71.81,39.55.16,71.78,32.65,71.64,72.23-.14,39.72-32.46,71.9-72.04,71.74Zm.3-120.06c-26.44-.05-47.99,21.4-48.08,47.87-.1,26.74,21.35,48.3,48.03,48.28,26.5-.02,47.85-21.43,47.88-48.02.02-26.5-21.42-48.07-47.83-48.12Z"/>
</svg>